<svg xmlns="http://www.w3.org/2000/svg" fill="none" viewBox="0 0 743 743"><g clip-path="url(#a)"><path fill="#335281" d="M743 371.5C743 576.674 576.674 743 371.5 743S0 576.674 0 371.5 166.326 0 371.5 0 743 166.326 743 371.5"/><mask id="b" width="682" height="656" x="156" y="181" maskUnits="userSpaceOnUse" style="mask-type:alpha"><path fill="#020202" d="M156.684 555.901 581 181.5l256.603 254.335-400.492 400.493z"/></mask><g mask="url(#b)"><circle cx="371.5" cy="371.5" r="371.5" fill="#000" fill-opacity=".2"/></g><path stroke="#fff" stroke-width="20" d="M175 192h397c8.837 0 16 7.163 16 16v337c0 8.837-7.163 16-16 16H175c-8.837 0-16-7.163-16-16V208c0-8.837 7.163-16 16-16Z"/><path fill="url(#c)" d="M168 293h412v260H168z"/><path fill="#18345c" d="M168 200h412v75H168z"/><path fill="#fff" d="M168 275h412v22H168zm386-38c0 8.284-6.716 15-15 15s-15-6.716-15-15 6.716-15 15-15 15 6.716 15 15m-53 0c0 8.284-6.716 15-15 15s-15-6.716-15-15 6.716-15 15-15 15 6.716 15 15m-53 0c0 8.284-6.716 15-15 15s-15-6.716-15-15 6.716-15 15-15 15 6.716 15 15"/></g><defs><linearGradient id="c" x1="168" x2="579.427" y1="293" y2="553.903" gradientUnits="userSpaceOnUse"><stop stop-color="#6c84a6"/><stop offset="1" stop-color="#b8c1d0"/></linearGradient><clipPath id="a"><path fill="#fff" d="M0 0h743v743H0z"/></clipPath></defs></svg>