<svg xmlns="http://www.w3.org/2000/svg" fill="none" viewBox="0 0 32 32"><path fill="url(#a)" d="M0 0h32v32H0z"/><g filter="url(#b)"><circle cx="7.994" cy="8" r="1.95" fill="url(#c)" stroke="#f6f6f3" stroke-width=".1"/><rect width="3.9" height="13.9" x="6.044" y="11.05" fill="url(#d)" stroke="#f6f6f3" stroke-width=".1" rx=".95"/><mask id="f" fill="#fff"><path d="M25.994 9.21a.79.79 0 0 1-.79.79.79.79 0 0 0-.629.313l-7.215 9.52a1 1 0 0 0 .797 1.605h7.216a1 1 0 0 1 1 1V24a1 1 0 0 1-1 1H11.935a1 1 0 0 1-1-1v-2.56q0-.003.003-.003a.002.002 0 0 0 .001-.004l-.004-.003a.004.004 0 0 1-.001-.006l7.443-9.82A1 1 0 0 0 17.58 10h-5.586a1 1 0 0 1-1-1V7a1 1 0 0 1 1-1h13a1 1 0 0 1 1 1z"/></mask><path fill="url(#e)" d="M25.994 9.21a.79.79 0 0 1-.79.79.79.79 0 0 0-.629.313l-7.215 9.52a1 1 0 0 0 .797 1.605h7.216a1 1 0 0 1 1 1V24a1 1 0 0 1-1 1H11.935a1 1 0 0 1-1-1v-2.56q0-.003.003-.003a.002.002 0 0 0 .001-.004l-.004-.003a.004.004 0 0 1-.001-.006l7.443-9.82A1 1 0 0 0 17.58 10h-5.586a1 1 0 0 1-1-1V7a1 1 0 0 1 1-1h13a1 1 0 0 1 1 1z"/><path fill="#f6f6f3" fill-rule="evenodd" d="m10.935 21.43.06-.08zm-.001-.006.08.06zm.005.01.061-.08zm6.421-1.6-.08-.06zm7.215-9.521-.08-.06zm0 0-.08-.06-7.215 9.52.08.06.08.06 7.215-9.52zm-6.418 11.125v.1h7.216v-.2h-7.216zm8.216 1h-.1V24h.2v-1.562zm-1 2.562v-.1H11.935v.2h13.438zm-14.438-1h.1v-2.56h-.2V24zm.004-2.567.061-.079-.004-.003-.061.08-.061.078.004.004zm-.005-.009.08.06 7.443-9.82-.08-.06-.08-.06-7.443 9.82zM17.58 10v-.1h-5.586v.2h5.586zm-6.586-1h.1V7h-.2v2zm1-3v.1h13v-.2h-13zm14 1h-.1v2.21h.2V7zm-1-1v.1a.9.9 0 0 1 .9.9h.2a1.1 1.1 0 0 0-1.1-1.1zm-14 1h.1a.9.9 0 0 1 .9-.9v-.2a1.1 1.1 0 0 0-1.1 1.1zm1 3v-.1a.9.9 0 0 1-.9-.9h-.2a1.1 1.1 0 0 0 1.1 1.1zm6.383 1.604.08.06A1.1 1.1 0 0 0 17.58 9.9v.2a.9.9 0 0 1 .717 1.444zm-7.442 9.826.06-.08c.042.033.05.093.019.135l-.08-.06-.08-.06a.104.104 0 0 0 .02.145zm.003.008v.1c.097 0 .14-.124.062-.184l-.061.08-.061.079a.098.098 0 0 1 .06-.176zm-.003.002h.1a.1.1 0 0 1-.097.098v-.2a.1.1 0 0 0-.103.102zm1 3.56v-.1a.9.9 0 0 1-.9-.9h-.2a1.1 1.1 0 0 0 1.1 1.1zm14.438-1h-.1a.9.9 0 0 1-.9.9v.2a1.1 1.1 0 0 0 1.1-1.1zm-1-2.562v.1a.9.9 0 0 1 .9.9h.2a1.1 1.1 0 0 0-1.1-1.1zm-8.013-1.604-.08-.06a1.1 1.1 0 0 0 .877 1.764v-.2a.9.9 0 0 1-.717-1.444zM25.205 10v-.1a.89.89 0 0 0-.71.352l.08.06.08.061a.69.69 0 0 1 .55-.273zm0 0v.1a.89.89 0 0 0 .889-.89h-.2a.69.69 0 0 1-.69.69z" clip-rule="evenodd" mask="url(#f)"/></g><g filter="url(#g)"><circle cx="7.994" cy="8" r="1.95" fill="url(#h)" stroke="#f6f6f3" stroke-width=".1"/><rect width="3.9" height="13.9" x="6.044" y="11.05" fill="url(#i)" stroke="#f6f6f3" stroke-width=".1" rx=".95"/><mask id="k" fill="#fff"><path d="M25.995 9.21a.79.79 0 0 1-.79.79.79.79 0 0 0-.63.313l-7.215 9.52a1 1 0 0 0 .797 1.605h7.216a1 1 0 0 1 1 1V24a1 1 0 0 1-1 1H11.936a1 1 0 0 1-1-1v-2.56q0-.003.002-.003.003 0 .002-.004l-.005-.003a.004.004 0 0 1 0-.006l7.442-9.82A1 1 0 0 0 17.58 10h-5.585a1 1 0 0 1-1-1V7a1 1 0 0 1 1-1h13a1 1 0 0 1 1 1z"/></mask><path fill="url(#j)" d="M25.995 9.21a.79.79 0 0 1-.79.79.79.79 0 0 0-.63.313l-7.215 9.52a1 1 0 0 0 .797 1.605h7.216a1 1 0 0 1 1 1V24a1 1 0 0 1-1 1H11.936a1 1 0 0 1-1-1v-2.56q0-.003.002-.003.003 0 .002-.004l-.005-.003a.004.004 0 0 1 0-.006l7.442-9.82A1 1 0 0 0 17.58 10h-5.585a1 1 0 0 1-1-1V7a1 1 0 0 1 1-1h13a1 1 0 0 1 1 1z"/><path fill="#f6f6f3" fill-rule="evenodd" d="m10.935 21.43-.06.08zm0-.006.08.06zm.005.01-.061.079zm6.42-1.6-.08-.06zm7.215-9.521.08.06zm0 0-.08-.06-7.215 9.52.08.06.08.06 7.214-9.52zm-6.418 11.125v.1h7.216v-.2h-7.216zm8.216 1h-.1V24h.2v-1.562zm-1 2.562v-.1H11.936v.2h13.437zm-14.437-1h.1v-2.56h-.2V24zm.004-2.567.06-.079-.004-.003-.06.08-.062.078.005.004zm-.006-.009.08.06 7.442-9.82-.08-.06-.08-.06-7.441 9.82zM17.58 10v-.1h-5.585v.2h5.585zm-6.585-1h.1V7h-.2v2zm1-3v.1h13v-.2h-13zm14 1h-.1v2.21h.2V7zm-1-1v.1a.9.9 0 0 1 .9.9h.2a1.1 1.1 0 0 0-1.1-1.1zm-14 1h.1a.9.9 0 0 1 .9-.9v-.2a1.1 1.1 0 0 0-1.1 1.1zm1 3v-.1a.9.9 0 0 1-.9-.9h-.2a1.1 1.1 0 0 0 1.1 1.1zm6.382 1.604.08.06A1.1 1.1 0 0 0 17.58 9.9v.2a.9.9 0 0 1 .717 1.444zm-7.442 9.826.061-.08c.042.033.05.093.018.135l-.08-.06-.08-.06a.104.104 0 0 0 .02.145zm.003.008v.1c.098 0 .14-.124.062-.184l-.06.08-.061.079a.098.098 0 0 1 .06-.176zm-.002.002h.1a.1.1 0 0 1-.098.098v-.2a.1.1 0 0 0-.102.102zm1 3.56v-.1a.9.9 0 0 1-.9-.9h-.2a1.1 1.1 0 0 0 1.1 1.1zm14.437-1h-.1a.9.9 0 0 1-.9.9v.2a1.1 1.1 0 0 0 1.1-1.1zm-1-2.562v.1a.9.9 0 0 1 .9.9h.2a1.1 1.1 0 0 0-1.1-1.1zm-8.014-1.604-.08-.06a1.1 1.1 0 0 0 .878 1.764v-.2a.9.9 0 0 1-.718-1.444zM25.205 10v-.1a.89.89 0 0 0-.709.352l.08.06.08.061a.69.69 0 0 1 .55-.273zm0 0v.1a.89.89 0 0 0 .89-.89h-.2a.69.69 0 0 1-.69.69z" clip-rule="evenodd" mask="url(#k)"/></g><defs><linearGradient id="a" x1="25.751" x2="7.225" y1="5.28" y2="20.522" gradientUnits="userSpaceOnUse"><stop stop-color="#542cff"/><stop offset="1" stop-color="#9d8fda"/></linearGradient><linearGradient id="c" x1="9.213" x2="6.897" y1="6.66" y2="8.565" gradientUnits="userSpaceOnUse"><stop stop-color="#542cff"/><stop offset="1" stop-color="#9d8fda"/></linearGradient><linearGradient id="d" x1="9.213" x2="5.533" y1="13.31" y2="14.175" gradientUnits="userSpaceOnUse"><stop stop-color="#542cff"/><stop offset="1" stop-color="#9d8fda"/></linearGradient><linearGradient id="e" x1="23.358" x2="12.999" y1="9.135" y2="16.06" gradientUnits="userSpaceOnUse"><stop stop-color="#542cff"/><stop offset="1" stop-color="#9d8fda"/></linearGradient><linearGradient id="h" x1="5.991" x2="9.992" y1="5.995" y2="9.996" gradientUnits="userSpaceOnUse"><stop stop-color="#fff"/><stop offset="1" stop-color="#d1c9c7"/></linearGradient><linearGradient id="i" x1="5.991" x2="13.389" y1="10.984" y2="13.098" gradientUnits="userSpaceOnUse"><stop stop-color="#fff"/><stop offset="1" stop-color="#d1c9c7"/></linearGradient><linearGradient id="j" x1="10.923" x2="29.525" y1="5.978" y2="21.095" gradientUnits="userSpaceOnUse"><stop stop-color="#fff"/><stop offset="1" stop-color="#d1c9c7"/></linearGradient><filter id="b" width="22.379" height="21" x="4.994" y="6" color-interpolation-filters="sRGB" filterUnits="userSpaceOnUse"><feFlood flood-opacity="0" result="BackgroundImageFix"/><feColorMatrix in="SourceAlpha" result="hardAlpha" values="0 0 0 0 0 0 0 0 0 0 0 0 0 0 0 0 0 0 127 0"/><feOffset dy="1"/><feGaussianBlur stdDeviation=".5"/><feComposite in2="hardAlpha" operator="out"/><feColorMatrix values="0 0 0 0 0 0 0 0 0 0 0 0 0 0 0 0 0 0 0.18 0"/><feBlend in2="BackgroundImageFix" result="effect1_dropShadow_320_201"/><feBlend in="SourceGraphic" in2="effect1_dropShadow_320_201" result="shape"/><feColorMatrix in="SourceAlpha" result="hardAlpha" values="0 0 0 0 0 0 0 0 0 0 0 0 0 0 0 0 0 0 127 0"/><feOffset/><feGaussianBlur stdDeviation="1"/><feComposite in2="hardAlpha" k2="-1" k3="1" operator="arithmetic"/><feColorMatrix values="0 0 0 0 0.973863 0 0 0 0 0.987538 0 0 0 0 0.167034 0 0 0 0.25 0"/><feBlend in2="shape" result="effect2_innerShadow_320_201"/></filter><filter id="g" width="22.379" height="21" x="4.994" y="6" color-interpolation-filters="sRGB" filterUnits="userSpaceOnUse"><feFlood flood-opacity="0" result="BackgroundImageFix"/><feColorMatrix in="SourceAlpha" result="hardAlpha" values="0 0 0 0 0 0 0 0 0 0 0 0 0 0 0 0 0 0 127 0"/><feOffset dy="1"/><feGaussianBlur stdDeviation=".5"/><feComposite in2="hardAlpha" operator="out"/><feColorMatrix values="0 0 0 0 0 0 0 0 0 0 0 0 0 0 0 0 0 0 0.18 0"/><feBlend in2="BackgroundImageFix" result="effect1_dropShadow_320_201"/><feBlend in="SourceGraphic" in2="effect1_dropShadow_320_201" result="shape"/><feColorMatrix in="SourceAlpha" result="hardAlpha" values="0 0 0 0 0 0 0 0 0 0 0 0 0 0 0 0 0 0 127 0"/><feOffset/><feGaussianBlur stdDeviation="1"/><feComposite in2="hardAlpha" k2="-1" k3="1" operator="arithmetic"/><feColorMatrix values="0 0 0 0 0.973863 0 0 0 0 0.987538 0 0 0 0 0.167034 0 0 0 0.25 0"/><feBlend in2="shape" result="effect2_innerShadow_320_201"/></filter></defs></svg>