<svg xmlns="http://www.w3.org/2000/svg" fill="none" viewBox="0 0 1024 1024"><g filter="url(#a)"><rect width="1024" height="1024" fill="url(#b)" rx="30"/></g><g filter="url(#c)"><path fill="url(#d)" d="M788.514 405.936c-9.983 1.065-28.217 4.662-41.927 7.992-17.436 4.395-52.575 20.113-68.68 30.636-9.584 6.393-11.846 8.391-26.621 23.043-28.35 28.239-33.541 36.497-62.957 98.302-4.525 9.458-8.119 17.583-8.119 17.982 0 .8-2.928 6.927-14.774 31.569-2.928 5.861-5.191 11.455-5.191 12.388s-.533 2.664-1.331 3.996c-1.997 3.729-13.31 28.105-13.31 28.771 0 .4-3.195 7.459-7.055 15.718-3.993 8.258-8.784 18.914-10.914 23.709-1.997 4.796-5.324 12.122-7.454 16.384-2.129 4.129-3.86 8.392-3.86 9.457 0 .933-.798 2.398-1.73 3.197s-2.529 4.529-3.594 8.258c-.932 3.597-2.263 6.66-2.928 6.66-.532 0-1.065.8-1.065 1.865 0 1.066-3.194 8.392-7.054 16.384-3.727 7.859-8.918 19.048-11.447 24.642-2.529 5.728-5.324 10.39-6.123 10.39-.798 0-2.395-1.998-3.593-4.396-2.929-5.594-14.375-30.37-14.375-31.036 0-.532-2.263-5.594-8.785-19.847-1.597-3.729-4.526-9.99-6.256-13.986-1.863-3.996-5.856-12.787-8.918-19.314-3.061-6.66-6.389-14.119-7.587-16.65-1.064-2.531-4.791-10.656-8.385-17.982-10.515-22.111-11.979-25.441-11.979-26.373s-3.993-9.857-13.177-29.571c-3.727-7.859-6.655-14.252-13.044-28.638-3.727-8.259-5.857-12.787-13.576-29.704-3.062-6.527-5.458-12.121-5.458-12.387 0-.933-5.324-12.521-8.651-19.181-1.731-3.33-4.659-9.857-6.655-14.652-1.997-4.796-7.454-16.784-12.246-26.641-4.658-9.856-9.051-19.18-9.716-20.646-1.863-4.528-7.454-16.916-11.846-26.24-2.263-4.929-4.126-9.591-4.126-10.39s-2.13-5.861-4.659-11.322a17.3 17.3 0 0 0-15.681-9.99H192.884c-64.288 0-111.805.533-111.805 1.199s3.993 2.264 8.918 3.463c17.436 4.662 33.009 13.587 48.049 27.839 12.645 11.988 22.228 31.036 28.484 56.744 1.331 5.86 1.73 35.43 1.464 153.846-.266 88.712-.931 152.248-1.73 161.173-1.863 18.781-3.86 33.566-5.324 38.628-.666 2.131-2.263 7.859-3.461 12.654-6.921 27.306-16.771 47.419-33.009 67.799-6.655 8.258-20.897 20.38-30.214 25.708-1.73.932-4.126 2.397-5.191 3.196-2.13 1.599-23.444 11.086-29.567 12.418-13.443 2.797 4.171 1 120.502 1 116.73 0 134.176 1.93 120.999-1-13.177-2.797-29.452-11.751-39.967-18.944-8.784-5.994-23.292-19.98-30.347-29.438-5.856-7.592-19.699-34.499-23.16-44.755-2.662-8.258-5.59-19.181-6.788-25.308-.532-3.33-1.73-9.058-2.396-12.654-3.194-15.718-4.259-25.441-5.457-48.618-1.464-28.639-1.597-296.771-.133-297.57 1.065-.666 3.328 3.463 8.785 16.517 2.13 4.795 5.723 12.787 7.986 17.982 2.396 5.061 5.99 13.186 7.986 17.982 6.389 15.185 7.054 16.517 9.717 22.644 3.593 8.125 10.781 23.709 16.903 36.63 15.44 33.167 18.502 39.827 32.61 71.928 3.86 8.791 10.249 22.777 14.242 31.036 3.86 8.258 7.055 15.318 7.055 15.584 0 .4 3.194 7.46 7.054 15.718 9.184 19.181 10.781 22.644 14.242 31.569 1.597 3.996 4.525 10.922 6.655 15.318 1.996 4.395 5.058 10.922 6.655 14.652 3.993 9.057 8.785 19.58 13.976 30.636 2.262 5.061 5.191 11.455 6.389 13.986 1.064 2.531 4.658 10.389 7.986 17.449s6.388 14.119 6.921 15.851c.532 1.732 3.594 8.791 6.921 15.851 3.328 7.059 6.921 14.918 7.986 17.449 4.659 10.39 10.249 22.644 15.706 33.966 3.062 6.527 6.922 15.185 8.652 19.048a11.47 11.47 0 0 0 10.936 6.73l2.198-.094a14.72 14.72 0 0 0 12.649-8.343l.97-2.023c2.662-5.461 5.857-12.121 6.922-14.652 1.198-2.531 5.457-12.121 9.583-21.312a3252 3252 0 0 0 9.184-20.646c1.065-2.264 4.259-9.724 7.454-16.65a5236 5236 0 0 0 7.32-16.65c2.662-5.994 8.519-19.181 11.979-26.64 1.731-3.73 4.792-10.257 6.655-14.652 5.99-13.453 8.785-19.581 13.444-29.304 2.396-5.195 5.324-11.988 6.655-15.318 3.594-9.724 3.993-10.656 11.713-26.907 4.126-8.658 7.453-15.984 7.453-16.384 0-.266 1.864-4.395 3.993-8.924 2.263-4.529 3.994-8.658 3.994-9.191 0-.932 14.907-33.3 17.303-37.429.798-1.332 1.331-3.064 1.331-3.863 0-1.598 15.706-36.497 28.084-62.071 4.393-9.058 7.853-16.917 7.853-17.583s.932-2.93 1.997-5.061c2.795-5.329 9.317-20.247 11.313-25.708 7.986-22.112 22.228-46.221 25.556-42.891.665.666.932 79.92.799 186.215-.4 173.694-.533 185.415-2.796 192.341-5.59 17.183-9.849 24.775-19.566 34.632C599.909 957.652 576.639 969.338 561 974s205 0 207 0c10 .001 174.5-.5 174.978 0s-1.721 2.055.522-9.5c.841-4.333 2.74-16.438 4.337-26.695 1.464-10.256 3.194-22.244 3.727-26.64.665-4.396 2.395-15.851 3.993-25.308 1.597-9.59 3.46-20.912 3.993-25.308.665-4.396 2.396-15.451 3.86-24.642 5.856-35.298 7.054-44.223 5.59-45.688s-5.324 2.264-5.457 5.195c0 .666-1.464 4.262-3.195 7.992-1.73 3.596-5.058 10.922-7.32 16.25-5.324 12.122-11.048 22.778-17.703 32.501-2.795 4.129-5.058 7.992-5.058 8.392 0 2.664-18.101 25.308-30.347 38.228-18.767 19.581-51.111 43.69-58.698 43.69-1.331 0-2.795.533-3.593 1.199-3.461 3.197-19.566 6.793-30.747 6.793-19.566 0-29.682-6.926-35.139-23.976-2.662-8.525-2.795-384.15-.133-399.601 3.86-21.845 6.788-33.3 11.846-45.289 11.713-27.972 23.293-41.824 42.193-51.149 8.918-4.395 25.423-6.793 31.146-4.662 1.611.657 1.922 2.804.564 3.891l-.298.239c-14.641 11.721-25.555 26.107-29.282 38.361-2.263 7.593-3.327 37.163-1.464 39.028.799.799 1.464 2.398 1.464 3.597s1.864 6.127 4.259 10.789c5.457 10.922 21.563 27.306 31.812 32.101 41.261 19.581 86.915-.133 100.891-43.29 8.119-25.308-.533-55.545-21.43-75.125-16.371-15.185-42.193-25.708-73.072-29.571-13.178-1.731-66.152-1.598-81.725.134"/></g><defs><linearGradient id="b" x1="0" x2="260.882" y1="21.005" y2="1085.54" gradientUnits="userSpaceOnUse"><stop stop-color="#303030"/><stop offset="1" stop-color="#0b0b0b"/></linearGradient><linearGradient id="d" x1="512.59" x2="493.499" y1="404.568" y2="886.5" gradientUnits="userSpaceOnUse"><stop stop-color="#fff"/><stop offset="1" stop-color="#bcb5b5"/></linearGradient><filter id="a" width="1024" height="1025" x="0" y="0" color-interpolation-filters="sRGB" filterUnits="userSpaceOnUse"><feFlood flood-opacity="0" result="BackgroundImageFix"/><feBlend in="SourceGraphic" in2="BackgroundImageFix" result="shape"/><feColorMatrix in="SourceAlpha" result="hardAlpha" values="0 0 0 0 0 0 0 0 0 0 0 0 0 0 0 0 0 0 127 0"/><feOffset dy="1"/><feGaussianBlur stdDeviation="1"/><feComposite in2="hardAlpha" k2="-1" k3="1" operator="arithmetic"/><feColorMatrix values="0 0 0 0 0.594702 0 0 0 0 0.594702 0 0 0 0 0.594702 0 0 0 0.25 0"/><feBlend in2="shape" result="effect1_innerShadow_304_2"/></filter><filter id="c" width="913.916" height="573.504" x="55.652" y="404.568" color-interpolation-filters="sRGB" filterUnits="userSpaceOnUse"><feFlood flood-opacity="0" result="BackgroundImageFix"/><feBlend in="SourceGraphic" in2="BackgroundImageFix" result="shape"/><feColorMatrix in="SourceAlpha" result="hardAlpha" values="0 0 0 0 0 0 0 0 0 0 0 0 0 0 0 0 0 0 127 0"/><feOffset dy="2"/><feGaussianBlur stdDeviation="1"/><feComposite in2="hardAlpha" k2="-1" k3="1" operator="arithmetic"/><feColorMatrix values="0 0 0 0 0.557895 0 0 0 0 0.509595 0 0 0 0 0.509595 0 0 0 1 0"/><feBlend in2="shape" result="effect1_innerShadow_304_2"/></filter></defs></svg>