<svg xmlns="http://www.w3.org/2000/svg" fill="none" viewBox="0 0 846 846"><path fill="#343232" d="M37 87c0-37.555 30.445-68 68-68h634c37.555 0 68 30.445 68 68v667c0 37.555-30.445 68-68 68H105c-37.555 0-68-30.445-68-68z"/><path fill="url(#a)" d="M36 75c0-33.137 26.863-60 60-60h643c33.137 0 60 26.863 60 60v676c0 33.137-26.863 60-60 60H96c-33.137 0-60-26.863-60-60z"/><path fill="#161616" d="M51 142.001c0-26.51 21.49-48 48-48h637c26.51 0 48 21.49 48 47.999v605c0 26.51-21.49 48-48 48H99c-26.51 0-48-21.49-48-48z"/><circle cx="621" cy="61.998" r="15" fill="#02c94a" stroke="#41d675" stroke-width="2"/><mask id="b" fill="#fff"><path fill-rule="evenodd" d="M624.146 57.558a1 1 0 0 1 1 1v4a1 1 0 1 1-1.999 0v-1.465l-.81.809a1.075 1.075 0 0 1-1.521-1.521l.824-.824h-1.494a1 1 0 0 1 0-2z" clip-rule="evenodd"/></mask><path fill="#186902" fill-rule="evenodd" d="M624.146 57.558a1 1 0 0 1 1 1v4a1 1 0 1 1-1.999 0v-1.465l-.81.809a1.075 1.075 0 0 1-1.521-1.521l.824-.824h-1.494a1 1 0 0 1 0-2z" clip-rule="evenodd"/><path fill="#184b00" d="M625.146 58.558h.1zm0 4h.1zm-1 1v.1h.001zm-.999-1h.1zm0-1.465h.1v-.242l-.171.171zm-.81.809.071.07zm-1.521 0-.071.07zm0-1.521-.071-.07zm.824-.824.071.07.17-.17h-.241zm-1.494 0v.1zm-1-1h-.1zm5-1v.1a.9.9 0 0 1 .9.9h.2a1.1 1.1 0 0 0-1.1-1.1zm1 1h-.1v4.001h.2v-4zm0 4.001h-.1a.9.9 0 0 1-.9.9v.1l.001.1a1.1 1.1 0 0 0 1.099-1.1zm-1 1v-.1a.9.9 0 0 1-.899-.9h-.2a1.1 1.1 0 0 0 1.099 1.1zm-.999-1h.1v-1.465h-.2v1.465zm0-1.465-.071-.071-.809.81.07.07.071.07.809-.809zm-.81.809-.07-.07a.976.976 0 0 1-1.38-.001l-.071.07-.071.071c.459.46 1.204.46 1.663 0zm-1.521 0 .071-.071a.975.975 0 0 1 0-1.38l-.071-.07-.071-.07a1.175 1.175 0 0 0 0 1.661zm0-1.521.071.07.824-.823-.071-.071-.071-.07-.824.823zm.824-.824v-.1h-1.494v.2h1.494zm-1.494 0v-.1a.9.9 0 0 1-.9-.9h-.2a1.1 1.1 0 0 0 1.1 1.1zm-1-1h.1a.9.9 0 0 1 .9-.9v-.2a1.1 1.1 0 0 0-1.1 1.1zm1-1v.1h4v-.2h-4z" mask="url(#b)"/><mask id="c" fill="#fff"><path fill-rule="evenodd" d="M617.104 66.31a1 1 0 0 1-1-1v-4a1 1 0 1 1 1.999 0v1.465l.81-.81a1.076 1.076 0 0 1 1.521 1.521l-.824.824h1.494a1 1 0 0 1 0 2z" clip-rule="evenodd"/></mask><path fill="#186902" fill-rule="evenodd" d="M617.104 66.31a1 1 0 0 1-1-1v-4a1 1 0 1 1 1.999 0v1.465l.81-.81a1.076 1.076 0 0 1 1.521 1.521l-.824.824h1.494a1 1 0 0 1 0 2z" clip-rule="evenodd"/><path fill="#184b00" d="M616.104 65.31h-.1zm0-4h-.1zm1-1v-.1h-.001zm.999 1h.1zm0 1.465h-.1v.24l.171-.17zm.81-.81-.071-.07zm1.521 0 .071-.07zm0 1.521.071.071zm-.824.824-.071-.07-.17.17h.241zm1.494 0v-.1zm1 1h.1zm-5 1v-.1a.9.9 0 0 1-.9-.9h-.2c.001.607.493 1.1 1.1 1.1zm-1-1h.1v-4h-.2v4zm0-4h.1a.9.9 0 0 1 .9-.9v-.1l-.001-.1a1.1 1.1 0 0 0-1.099 1.1zm1-1v.1c.497 0 .899.402.899.9h.2a1.1 1.1 0 0 0-1.099-1.1zm.999 1h-.1v1.465h.2v-1.466zm0 1.465.071.07.809-.81-.07-.07-.071-.07-.809.809zm.81-.81.07.07a.976.976 0 0 1 1.38.002l.071-.071.071-.07a1.176 1.176 0 0 0-1.663-.002zm1.521 0-.071.071a.975.975 0 0 1 0 1.38l.071.07.071.071a1.175 1.175 0 0 0 0-1.662zm0 1.521-.071-.07-.824.824.071.07.071.07.824-.823zm-.824.824v.1h1.494v-.2h-1.494zm1.494 0v.1a.9.9 0 0 1 .9.9h.2a1.1 1.1 0 0 0-1.1-1.1zm1 1h-.1a.9.9 0 0 1-.9.9v.2c.607 0 1.099-.493 1.1-1.1zm-1 1v-.1h-4v.2h4z" mask="url(#c)"/><circle cx="717" cy="61.998" r="15" fill="#f50b14" stroke="#fa464b" stroke-width="2"/><mask id="d" fill="#fff"><path fill-rule="evenodd" d="M714.237 66.105a.95.95 0 1 1-1.344-1.345l2.754-2.753-2.754-2.754a.951.951 0 0 1 1.344-1.344l2.754 2.754 2.754-2.754a.95.95 0 0 1 1.344 1.343l-2.754 2.755 2.754 2.754a.95.95 0 0 1-1.344 1.344l-2.754-2.753z" clip-rule="evenodd"/></mask><path fill="#ae0001" fill-rule="evenodd" d="M714.237 66.105a.95.95 0 1 1-1.344-1.345l2.754-2.753-2.754-2.754a.951.951 0 0 1 1.344-1.344l2.754 2.754 2.754-2.754a.95.95 0 0 1 1.344 1.343l-2.754 2.755 2.754 2.754a.95.95 0 0 1-1.344 1.344l-2.754-2.753z" clip-rule="evenodd"/><path fill="#890000" d="m714.237 66.105-.07-.07zm-1.344 0-.071.07zm0-1.345-.071-.07zm2.754-2.753.07.071.071-.07-.071-.071zm-2.754-2.754-.071.071zm0-1.344-.071-.071zm1.344 0 .071-.071zm2.754 2.754-.07.07.07.071.071-.07zm2.754-2.754-.07-.071zm1.344 0 .071-.071zm0 1.343.071.071zm-2.754 2.755-.071-.07-.07.07.07.071zm2.754 2.754.071-.07zm0 1.344.071.07zm-1.344 0-.07.07zm-2.754-2.753.071-.07-.071-.071-.07.07zm-2.754 2.753-.07-.07a.85.85 0 0 1-1.204 0l-.07.07-.071.07c.41.41 1.076.41 1.486 0zm-1.344 0 .07-.07a.85.85 0 0 1 0-1.204l-.07-.07-.071-.072c-.41.41-.41 1.077 0 1.487zm0-1.345.07.071 2.754-2.753-.07-.07-.071-.071-2.754 2.752zm2.754-2.753.07-.07-2.754-2.754-.07.07-.071.071 2.754 2.754zm-2.754-2.754.07-.07a.85.85 0 0 1 0-1.204l-.07-.07-.071-.071c-.41.41-.41 1.076 0 1.486zm0-1.344.07.07a.85.85 0 0 1 1.204 0l.07-.07.071-.071a1.05 1.05 0 0 0-1.486 0zm1.344 0-.07.07 2.754 2.754.07-.07.071-.071-2.754-2.754zm2.754 2.754.071.07 2.754-2.754-.071-.07-.07-.071-2.754 2.754zm2.754-2.754.071.07a.85.85 0 0 1 1.202 0l.071-.07.071-.071a1.05 1.05 0 0 0-1.485 0zm1.344 0-.071.07a.85.85 0 0 1 0 1.203l.071.07.071.071a1.05 1.05 0 0 0 0-1.485zm0 1.343-.071-.07-2.754 2.755.071.07.071.071 2.754-2.755zm-2.754 2.755-.071.071 2.754 2.754.071-.07.071-.072-2.754-2.753zm2.754 2.754-.071.07a.85.85 0 0 1 0 1.203l.071.071.071.07a1.05 1.05 0 0 0 0-1.484zm0 1.344-.071-.07a.85.85 0 0 1-1.202 0l-.071.07-.07.07c.41.41 1.075.41 1.485 0zm-1.344 0 .071-.07-2.754-2.754-.071.071-.07.07 2.754 2.754zm-2.754-2.753-.07-.07-2.754 2.752.07.071.071.07 2.754-2.752z" mask="url(#d)"/><circle cx="669" cy="61.998" r="15" fill="#fec303" stroke="#fecf47" stroke-width="2" transform="rotate(-180 669 61.998)"/><rect width="11.491" height="1.801" x="674.745" y="63.153" fill="#a26e01" stroke="#7c5400" stroke-width=".1" rx=".9" transform="rotate(-180 674.745 63.153)"/><path fill="#2d2c2c" d="M417.286 81c195.581 0 354.768 152.01 354.768 338.863 0 152.613-106.165 281.983-251.658 324.27-.789-13.464-2.359-27.042-4.702-40.661 60.974-19.362 113.491-56.178 151.432-104.211h-98.417c-14.261 33.135-32.782 64.733-54.82 94.48-3.475-17.477-8.216-34.992-14.209-52.394a442 442 0 0 0 23.035-42.086h-40.102a448 448 0 0 0-21.197-39.866h77.952c13.815-38.471 21.828-78.616 23.873-119.599H359.519c-17.553-14.847-35.821-28.144-54.582-39.866H563.2c-1.961-40.982-9.976-81.128-23.749-119.598H293.367c-11.61 32.428-19.157 66.046-22.391 100.352a435 435 0 0 0-39.996-17.964c3.458-28.006 9.464-55.563 18.188-82.388H140.65a285.4 285.4 0 0 0-23.78 56.202c-14.624-1.038-29.123-1.157-43.405-.351C112.568 189.668 251.887 81.001 417.286 81.001m187.693 358.796c-1.837 40.823-8.807 80.969-21.412 119.599h110.354c20.076-36.119 32.388-76.663 35.351-119.599zm-21.287-159.464c12.563 38.63 19.492 78.775 21.287 119.598h124.293c-3.005-42.936-15.317-83.48-35.351-119.598zM328.26 133.345c-64.985 18.458-120.997 56.61-160.856 107.12h96.58c16.236-37.872 38.023-73.712 64.276-107.12m89.026-12.478c-8.514 0-16.82.598-25.126 1.196-34.391 35.76-61.896 75.706-82.222 118.402h212.944c-20.368-42.736-47.915-82.722-82.307-118.482-7.721-.518-15.442-1.116-23.289-1.116m86.897 11.96c26.461 33.567 48.332 69.566 64.693 107.638h98.25c-40.318-51.028-97.082-89.419-162.943-107.638"/><path fill="url(#e)" d="M414.286 79c195.581 0 354.768 152.01 354.768 338.863 0 152.613-106.165 281.983-251.658 324.27-.789-13.464-2.359-27.042-4.702-40.661 60.974-19.362 113.491-56.178 151.432-104.211h-98.417c-14.261 33.135-32.782 64.733-54.82 94.48-3.475-17.477-8.216-34.992-14.209-52.394a442 442 0 0 0 23.035-42.086h-40.102a448 448 0 0 0-21.197-39.866h77.952c13.815-38.471 21.828-78.616 23.873-119.599H356.519c-17.553-14.847-35.821-28.144-54.582-39.866H560.2c-1.961-40.982-9.976-81.128-23.749-119.598H290.367c-11.61 32.428-19.157 66.046-22.391 100.352a435 435 0 0 0-39.996-17.964c3.458-28.006 9.464-55.563 18.188-82.388H137.65a285.4 285.4 0 0 0-23.78 56.202c-14.624-1.038-29.123-1.157-43.405-.351C109.568 187.668 248.887 79.001 414.286 79.001m187.693 358.796c-1.837 40.823-8.807 80.969-21.412 119.599h110.354c20.076-36.119 32.388-76.663 35.351-119.599zm-21.287-159.464c12.563 38.63 19.492 78.775 21.287 119.598h124.293c-3.005-42.936-15.317-83.48-35.351-119.598zM325.26 131.345c-64.985 18.458-120.997 56.61-160.856 107.12h96.58c16.236-37.872 38.023-73.712 64.276-107.12m89.026-12.478c-8.514 0-16.82.598-25.126 1.196-34.391 35.76-61.896 75.706-82.222 118.402h212.944c-20.368-42.736-47.915-82.722-82.307-118.482-7.721-.518-15.442-1.116-23.289-1.116m86.897 11.96c26.461 33.567 48.332 69.566 64.693 107.638h98.25c-40.318-51.028-97.082-89.419-162.943-107.638"/><path fill="#2d2c2c" d="M34.464 615.284c99.288 0 200.231 98.359 200.231 196.716h-66.192c0-65.571-67.847-131.141-134.04-131.141zm0-131.142c198.577 0 332.615 131.144 332.615 327.858h-66.191c0-163.928-134.04-262.283-266.424-262.283zm0-131.142c264.769 0 465 196.715 465 459h-66.193c0-229.5-167.134-393.424-398.807-393.424z"/><path fill="#f36c35" fill-rule="evenodd" d="M34.464 611.749c98.846 0 199.341 98.143 199.341 196.284h-65.898c0-65.428-67.546-130.854-133.443-130.854zm0-130.853c197.693 0 331.135 130.855 331.136 327.137h-65.897c0-163.569-133.444-261.706-265.24-261.706zm0-130.854c263.59 0 462.931 196.282 462.932 457.991h-65.899c0-228.996-166.391-392.56-397.033-392.56z" clip-rule="evenodd"/><defs><radialGradient id="a" cx="0" cy="0" r="1" gradientTransform="matrix(50.5809 865.706 -829.816 53.3665 417.5 413)" gradientUnits="userSpaceOnUse"><stop stop-color="#f36c35"/><stop offset="1" stop-color="#271209"/></radialGradient><linearGradient id="e" x1="426.986" x2="426.986" y1="79.001" y2="725.727" gradientUnits="userSpaceOnUse"><stop stop-color="#f1f7f7"/><stop offset="1" stop-color="#8d9191"/></linearGradient></defs></svg>