<svg xmlns="http://www.w3.org/2000/svg" fill="none" viewBox="0 0 30 10"><path fill="#141414" d="M0 0h30v10H0z"/><path fill="#06f23e" d="M23 8h6v1h-6z"/><path fill="#fff" d="M1.569 8V1.455H4.15q.745 0 1.27.284.524.28.798.783.278.498.278 1.15 0 .653-.281 1.151A1.94 1.94 0 0 1 5.4 5.6q-.53.278-1.285.278H2.47v-1.11h1.422q.4 0 .659-.137a.9.9 0 0 0 .39-.386q.13-.25.13-.572a1.2 1.2 0 0 0-.13-.57.88.88 0 0 0-.39-.38q-.263-.137-.665-.137h-.933V8zm8.95-2.09V3.09h1.361V8h-1.307v-.892h-.051a1.45 1.45 0 0 1-.553.694q-.384.262-.937.262-.492 0-.866-.224a1.54 1.54 0 0 1-.585-.636q-.207-.412-.21-.987V3.09h1.361v2.883q.003.435.233.687.231.252.617.252a1 1 0 0 0 .46-.112.9.9 0 0 0 .345-.338q.135-.225.132-.553m6.535-1.42-1.247.077a.64.64 0 0 0-.137-.287.7.7 0 0 0-.278-.208.94.94 0 0 0-.406-.08 1 1 0 0 0-.534.134q-.217.132-.217.352 0 .176.14.297.141.122.483.195l.888.18q.716.146 1.068.472t.352.857q0 .482-.285.847a1.85 1.85 0 0 1-.773.569 3 3 0 0 1-1.129.2q-.974 0-1.553-.405a1.58 1.58 0 0 1-.674-1.112l1.339-.07q.06.297.294.453.233.154.598.154.357 0 .575-.138.22-.14.224-.36a.38.38 0 0 0-.157-.304q-.153-.122-.473-.186l-.85-.17q-.72-.143-1.07-.498t-.35-.904q0-.473.257-.815.258-.342.725-.528.47-.185 1.1-.185.93 0 1.463.393.537.394.627 1.07m2.33.672V8h-1.361V1.455h1.323v2.502h.058q.166-.435.536-.68.372-.25.93-.25.512 0 .892.224.384.22.595.636.214.413.21.987V8h-1.36V5.117q.002-.454-.231-.706-.23-.252-.646-.253-.278 0-.492.119a.84.84 0 0 0-.332.345q-.12.223-.122.54M27.388 8v1.032h-4.299V8z"/></svg>