<svg xmlns="http://www.w3.org/2000/svg" fill="none" viewBox="0 0 32 32"><rect width="31" height="31" x=".5" y=".5" fill="url(#a)" stroke="url(#b)" rx="5.5"/><path stroke="url(#c)" stroke-width="1.5" d="M15.494 12a3 3 0 1 1 0-6 3 3 0 0 1 0 6Z"/><path stroke="url(#d)" stroke-width="1.5" d="M8.994 24a3 3 0 1 1 0-6 3 3 0 0 1 0 6Z"/><path stroke="url(#e)" stroke-width="1.5" d="M21.994 24a3 3 0 1 1 0-6 3 3 0 0 1 0 6Z"/><path stroke="url(#f)" stroke-linecap="round" stroke-width="1.5" d="M23.494 16a7.98 7.98 0 0 0-2.708-6M7.494 16a7.98 7.98 0 0 1 2.709-6m3.291 13.748a8 8 0 0 0 2 .252 8 8 0 0 0 2-.252"/><defs><linearGradient id="a" x1="16" x2="16" y1="0" y2="32" gradientUnits="userSpaceOnUse"><stop stop-color="#1d1d20"/><stop offset="1" stop-color="#09090b"/></linearGradient><linearGradient id="b" x1="3" x2="16" y1="1.5" y2="32" gradientUnits="userSpaceOnUse"><stop stop-color="#08614d"/><stop offset="1" stop-color="#18590b"/></linearGradient><linearGradient id="c" x1="12.494" x2="612.494" y1="6" y2="606" gradientUnits="userSpaceOnUse"><stop stop-color="#59b1f6"/><stop offset="1" stop-color="#8b5cf6"/></linearGradient><linearGradient id="d" x1="5.994" x2="605.994" y1="18" y2="618" gradientUnits="userSpaceOnUse"><stop stop-color="#59b1f6"/><stop offset="1" stop-color="#8b5cf6"/></linearGradient><linearGradient id="e" x1="18.994" x2="618.994" y1="18" y2="618" gradientUnits="userSpaceOnUse"><stop stop-color="#59b1f6"/><stop offset="1" stop-color="#8b5cf6"/></linearGradient><linearGradient id="f" x1="7.494" x2="1395.1" y1="10" y2="1595.84" gradientUnits="userSpaceOnUse"><stop stop-color="#59b1f6"/><stop offset="1" stop-color="#8b5cf6"/></linearGradient></defs></svg>